<svg width="24" height="24" viewBox="0 0 24 24" fill="none" xmlns="http://www.w3.org/2000/svg">
<g clip-path="url(#clip0_126_1598)">
<path d="M1.19995 19.2V12C1.19995 9.13567 2.3378 6.38865 4.3632 4.36326C6.38859 2.33787 9.13561 1.20001 12 1.20001C14.8643 1.20001 17.6113 2.33787 19.6367 4.36326C21.6621 6.38865 22.7999 9.13567 22.7999 12V19.2" stroke="#8AC53E" stroke-width="2" stroke-linecap="round" stroke-linejoin="round"/>
<path d="M22.7999 20.4C22.7999 21.0365 22.5471 21.647 22.097 22.0971C21.6469 22.5472 21.0365 22.8 20.4 22.8H19.2C18.5634 22.8 17.953 22.5472 17.5029 22.0971C17.0528 21.647 16.8 21.0365 16.8 20.4V16.8C16.8 16.1635 17.0528 15.5531 17.5029 15.103C17.953 14.6529 18.5634 14.4 19.2 14.4H22.7999V20.4ZM1.19995 20.4C1.19995 21.0365 1.45281 21.647 1.90289 22.0971C2.35298 22.5472 2.96343 22.8 3.59995 22.8H4.79995C5.43647 22.8 6.04692 22.5472 6.49701 22.0971C6.94709 21.647 7.19995 21.0365 7.19995 20.4V16.8C7.19995 16.1635 6.94709 15.5531 6.49701 15.103C6.04692 14.6529 5.43647 14.4 4.79995 14.4H1.19995V20.4Z" stroke="#8AC53E" stroke-width="2" stroke-linecap="round" stroke-linejoin="round"/>
</g>
<defs>
<clipPath id="clip0_126_1598">
<rect width="24" height="24" fill="white"/>
</clipPath>
</defs>
</svg>
