<svg width="20" height="20" viewBox="0 0 20 20" fill="none" xmlns="http://www.w3.org/2000/svg">
<path d="M6.01367 10.9453C7.6585 10.9454 8.98905 12.2878 8.98926 13.9414V17.0049C8.98901 18.6577 7.65828 19.9999 6.01367 20H2.97559C1.33096 19.9999 0.000247709 18.6577 0 17.0049V13.9414C0.000207027 12.2878 1.33074 10.9454 2.97559 10.9453H6.01367ZM17.0254 10.9453C18.6694 10.9454 19.9998 12.288 20 13.9414V17.0049C19.9998 18.6575 18.6692 19.9999 17.0254 20H13.9863C12.3417 19.9999 11.011 18.6577 11.0107 17.0049V13.9414C11.0109 12.2878 12.3415 10.9454 13.9863 10.9453H17.0254ZM2.97559 12.3408C2.10417 12.3409 1.39571 13.0556 1.39551 13.9414V17.0049C1.39575 17.8897 2.1043 18.6054 2.97559 18.6055H6.01367C6.88494 18.6054 7.5935 17.8897 7.59375 17.0049V13.9414C7.59354 13.0557 6.88507 12.3409 6.01367 12.3408H2.97559ZM13.9863 12.3408C13.1149 12.3409 12.4065 13.0557 12.4062 13.9414V17.0049C12.4065 17.8897 13.1151 18.6054 13.9863 18.6055H17.0254C17.8958 18.6054 18.6042 17.8896 18.6045 17.0049V13.9414C18.6043 13.0558 17.8959 12.3409 17.0254 12.3408H13.9863ZM6.01367 0C7.6583 0.000104544 8.98904 1.34229 8.98926 2.99512V6.05957C8.98926 7.71191 7.65815 9.05458 6.01367 9.05469H2.97559C1.33109 9.0546 0 7.71192 0 6.05957V2.99512C0.000215214 1.34228 1.33094 8.40509e-05 2.97559 0H6.01367ZM17.0254 0C18.6692 0.000117326 19.9998 1.34249 20 2.99512V6.05957C20 7.7117 18.6691 9.05457 17.0254 9.05469H13.9863C12.3418 9.05458 11.0107 7.71191 11.0107 6.05957V2.99512C11.011 1.34229 12.3417 0.000104285 13.9863 0H17.0254ZM2.97559 1.39551C2.10428 1.39559 1.39572 2.11022 1.39551 2.99512V6.05957C1.39551 6.94406 2.10452 7.66007 2.97559 7.66016H6.01367C6.88472 7.66005 7.59375 6.94405 7.59375 6.05957V2.99512C7.59354 2.11024 6.88496 1.39561 6.01367 1.39551H2.97559ZM13.9863 1.39551C13.115 1.39561 12.4065 2.11024 12.4062 2.99512V6.05957C12.4062 6.94405 13.1153 7.66005 13.9863 7.66016H17.0254C17.8956 7.66004 18.6045 6.94394 18.6045 6.05957V2.99512C18.6043 2.11035 17.8958 1.39563 17.0254 1.39551H13.9863Z" fill="#BDBDBD"/>
</svg>
