<svg width="20" height="20" viewBox="0 0 20 20" fill="none" xmlns="http://www.w3.org/2000/svg">
<path fill-rule="evenodd" clip-rule="evenodd" d="M10.0574 8.00255e-05C14.2109 0.0306835 17.9148 2.6182 19.367 6.50399C20.8193 10.3902 19.7182 14.7681 16.5994 17.5079C13.481 20.2471 8.9931 20.7798 5.31817 18.8477L5.27227 18.8321C5.26521 18.828 5.26401 18.8241 5.2625 18.8194L4.57989 18.4327C4.44097 18.3759 4.28626 18.367 4.19219 18.3907C3.48281 18.6457 2.75747 18.8551 2.02129 19.0177L1.88653 19.0343C1.07597 19.0522 0.667776 18.5262 0.667776 17.7608L0.687307 17.5968C0.871346 16.8357 1.10158 16.0863 1.36407 15.3927C1.40474 15.2614 1.39134 15.1191 1.3211 14.9874L1.1375 14.629C-0.48724 11.5225 -0.364429 7.79335 1.46074 4.79988C3.28568 1.80712 6.5461 -0.0139096 10.0574 8.00255e-05ZM9.76739 1.39852C6.85495 1.48185 4.1736 3.03133 2.65215 5.52645C1.08187 8.10187 0.976406 11.3099 2.37676 13.9874L2.55742 14.3399C2.79801 14.7901 2.84795 15.3181 2.6834 15.8448C2.4722 16.4057 2.29078 16.9775 2.1375 17.5567L2.53301 17.4542C2.80378 17.3795 3.07591 17.2964 3.35235 17.2052L3.77129 17.0616C4.21333 16.94 4.68332 16.9685 5.14629 17.1593C5.24344 17.2061 5.36453 17.2707 5.51641 17.3565L5.93926 17.5987C5.94619 17.6006 5.95215 17.6033 5.95684 17.6046L5.94512 17.6026L6.23223 17.7472C9.25773 19.2079 12.8628 18.778 15.4588 16.6466L15.6785 16.4591C18.362 14.1016 19.3098 10.3355 18.0604 6.99227C16.8108 3.64875 13.6231 1.42207 10.0486 1.39461L9.76739 1.39852ZM5.61602 8.85946C6.24599 8.85959 6.7576 9.36998 6.75762 10.0001C6.75762 10.6302 6.24601 11.1406 5.61602 11.1407C4.98592 11.1407 4.47442 10.6303 4.47442 10.0001C4.47444 9.36989 4.98593 8.85946 5.61602 8.85946ZM10.0525 8.85946C10.6826 8.85946 11.1941 9.3699 11.1941 10.0001C11.1941 10.6303 10.6826 11.1407 10.0525 11.1407C9.42249 11.1406 8.91094 10.6302 8.91094 10.0001C8.91096 9.36993 9.42251 8.85952 10.0525 8.85946ZM14.4891 8.85946C15.1191 8.85946 15.6306 9.3699 15.6307 10.0001C15.6307 10.6303 15.1192 11.1407 14.4891 11.1407C13.8592 11.1405 13.3484 10.6301 13.3484 10.0001C13.3485 9.37005 13.8592 8.85971 14.4891 8.85946Z" fill="#BDBDBD"/>
</svg>
