<svg width="20" height="20" viewBox="0 0 20 20" fill="none" xmlns="http://www.w3.org/2000/svg">
<path d="M7.38477 0C8.30694 5.42485e-05 9.17573 0.434824 9.72852 1.17285L10.6094 2.34668C10.8901 2.71992 11.3297 2.94043 11.7949 2.94141H14.5293C18.3103 2.94141 20 4.92285 20 8.9707L19.9736 13.7715C19.9736 17.6347 17.611 20 13.7529 20H6.22949C2.36396 20 0 17.6361 0 13.7715V6.22852C0 2.17549 1.73023 0 5.45312 0H7.38477ZM5.45312 1.45117C2.61265 1.45117 1.44922 2.91377 1.44922 6.22852V13.7715C1.44922 16.8341 3.16414 18.5488 6.22949 18.5488H13.7529C16.8104 18.5488 18.5244 16.8331 18.5244 13.7676L18.5508 8.9668C18.5508 5.67814 17.4544 4.39258 14.5293 4.39258H11.7939C10.873 4.39074 10.0055 3.95678 9.45117 3.21973L8.56934 2.04492C8.28978 1.67168 7.85069 1.45123 7.38477 1.45117H5.45312ZM14.6182 11.8184C15.0183 11.8186 15.3428 12.1433 15.3428 12.5439C15.3427 12.9113 15.0695 13.2146 14.7158 13.2627L14.6182 13.2695H5.34668C4.94657 13.2694 4.62215 12.9446 4.62207 12.5439C4.62207 12.1765 4.89526 11.8723 5.24902 11.8242L5.34668 11.8184H14.6182Z" fill="#BDBDBD"/>
</svg>
