<svg width="19" height="20" viewBox="0 0 19 20" fill="none" xmlns="http://www.w3.org/2000/svg">
<path fill-rule="evenodd" clip-rule="evenodd" d="M10.1161 1.4331e-07C10.8249 -0.000231542 11.5038 0.280465 11.998 0.77832C12.4921 1.27641 12.7597 1.95017 12.7382 2.57813L12.747 2.72559C12.7643 2.87093 12.8122 3.01133 12.8905 3.14063C13.0432 3.39573 13.2937 3.58095 13.5858 3.65527C13.8779 3.72947 14.1885 3.68697 14.4823 3.51855L14.6454 3.43555C15.8754 2.86908 17.3509 3.31942 18.0331 4.47949L18.6464 5.52148C18.6625 5.5489 18.6771 5.57739 18.6894 5.60645L18.746 5.71875C19.2942 6.86539 18.9039 8.22889 17.8622 8.92188L17.6054 9.08105C17.471 9.17286 17.3586 9.29247 17.2743 9.43652C17.122 9.69261 17.0802 9.9978 17.1581 10.2842C17.2361 10.5706 17.4275 10.8151 17.7177 10.9795L17.8847 11.084C18.3888 11.4296 18.7531 11.9397 18.912 12.5234C19.0911 13.182 18.9946 13.8835 18.6396 14.4805L17.9804 15.5566L17.8808 15.709C17.1059 16.8007 15.6013 17.1343 14.453 16.4854L14.3163 16.416C14.1744 16.3539 14.0211 16.3202 13.8817 16.3164C13.5784 16.315 13.2867 16.4325 13.0722 16.6426C12.8579 16.8527 12.7384 17.138 12.7392 17.4697L12.7314 17.6416C12.6202 18.9704 11.4841 20 10.1161 20H8.88077C7.43207 19.9999 6.25736 18.8493 6.2587 17.4756L6.25088 17.3281C6.23363 17.1827 6.18477 17.0414 6.10245 16.9053C5.95309 16.6497 5.70528 16.4629 5.41495 16.3867C5.12455 16.3107 4.81501 16.3519 4.51553 16.5215L4.3378 16.6084C3.77492 16.8564 3.13978 16.9019 2.54483 16.7363C1.87355 16.5494 1.30581 16.1082 0.974516 15.5225L0.336821 14.4443L0.25186 14.2842C-0.328375 13.0839 0.126591 11.641 1.28116 10.9873L1.38663 10.9229C1.69494 10.7137 1.87979 10.3687 1.87979 10C1.87979 9.59898 1.66117 9.2286 1.2792 9.01172L1.12393 8.91406C0.00970968 8.15468 -0.330077 6.68025 0.360259 5.50684L1.0087 4.46191C1.73081 3.23405 3.33162 2.81042 4.56241 3.50195L4.69522 3.57129C4.83103 3.63235 4.97897 3.66453 5.121 3.66602C5.74727 3.66599 6.25791 3.17356 6.26749 2.54199L6.2753 2.34766C6.32662 1.74706 6.59337 1.18298 7.02823 0.754883C7.51883 0.271954 8.18531 5.2756e-05 8.88077 1.4331e-07H10.1161ZM8.88077 1.44727C8.57849 1.44732 8.28837 1.56554 8.0751 1.77539C7.88604 1.96151 7.77022 2.20734 7.74991 2.43652L7.73721 2.74121C7.63376 4.07055 6.49957 5.11438 5.11319 5.11426C4.75583 5.11062 4.40311 5.03276 4.04385 4.87012L3.85147 4.77051C3.30344 4.46313 2.60444 4.64829 2.28018 5.19922L1.63077 6.24414C1.33326 6.75001 1.48262 7.39439 1.94327 7.70898L2.20401 7.87109C2.9219 8.34676 3.35733 9.14303 3.35733 10C3.35733 10.8445 2.93395 11.6343 2.20206 12.1299L2.04678 12.2256C1.53393 12.5163 1.33576 13.1443 1.57413 13.6387L1.62979 13.7451L2.25967 14.8086C2.40741 15.0696 2.65514 15.2621 2.94815 15.3438C3.20801 15.4161 3.48568 15.3963 3.70206 15.3018L3.81045 15.25C4.4106 14.9069 5.12655 14.8123 5.79776 14.9883C6.46869 15.1643 7.03978 15.5961 7.37881 16.1768C7.56117 16.4778 7.67689 16.8131 7.72159 17.1982L7.74209 17.5518C7.8043 18.1141 8.29027 18.5526 8.88077 18.5527H10.1161C10.7134 18.5527 11.2101 18.1019 11.2567 17.5508L11.2616 17.4424C11.2583 16.7588 11.5348 16.1016 12.0282 15.6182C12.5216 15.1351 13.1915 14.8646 13.9052 14.8682C14.2554 14.8774 14.6007 14.955 14.953 15.1104L15.2685 15.2686C15.7644 15.4818 16.3531 15.3253 16.6513 14.9062L16.7235 14.7959L17.3681 13.7432C17.5201 13.4873 17.562 13.1826 17.4843 12.8965C17.4152 12.6427 17.2564 12.4206 17.0644 12.2881L16.7919 12.1191C16.2715 11.7744 15.8933 11.2559 15.7304 10.6572C15.5511 9.99852 15.6475 9.29731 15.995 8.71289C16.1853 8.38745 16.4461 8.107 16.787 7.875L16.9481 7.77637C17.4601 7.48291 17.6574 6.85456 17.4208 6.3584L17.3505 6.22559L17.3378 6.19727L16.7528 5.20215C16.4763 4.73184 15.9004 4.52894 15.412 4.68945L15.3017 4.73242L15.1981 4.78418C14.6 5.12938 13.8857 5.22755 13.2138 5.05664C12.5419 4.88563 11.9672 4.45934 11.6181 3.87598C11.4357 3.57488 11.32 3.23974 11.2753 2.85449L11.2626 2.60254C11.2715 2.29931 11.1542 2.00562 10.9384 1.78809C10.7226 1.57057 10.426 1.44717 10.1161 1.44727H8.88077ZM9.50381 6.73145C11.3457 6.7318 12.8395 8.19542 12.8398 10C12.8395 11.8046 11.3457 13.2672 9.50381 13.2676C7.66165 13.2676 6.16808 11.8048 6.16788 10C6.16808 8.19521 7.66165 6.73145 9.50381 6.73145ZM9.50381 8.17871C8.47775 8.17871 7.64562 8.99477 7.64541 10C7.64562 11.0052 8.47775 11.8203 9.50381 11.8203C10.5296 11.82 11.361 11.005 11.3612 10C11.361 8.99499 10.5296 8.17906 9.50381 8.17871Z" fill="#BDBDBD"/>
</svg>
